<svg id="Layer_1" data-name="Layer 1" xmlns="http://www.w3.org/2000/svg" viewBox="0 0 331.66 62.2"><defs><style>.cls-1{fill:#40c78e;}.cls-2{fill:#39b37f;}.cls-3{fill:#d83d51;}.cls-4{fill:#ef445a;}.cls-5{fill:#333;}</style></defs><path class="cls-1" d="M43.41,35c0-1.89-1.64-2.85-3.11-4.05-7.74-6.33-18.59-11.63-18.59-11.63h0V56.93l17.57,5.14A3.24,3.24,0,0,0,43.41,59Z"/><path class="cls-2" d="M0,35c0-1.89,1.64-2.85,3.11-4.05C10.85,24.57,21.7,19.27,21.7,19.27h0V56.93L4.14,62.07A3.24,3.24,0,0,1,0,59Z"/><path class="cls-3" d="M34.81,15.83c0,1.11.95,1.66,1.81,2.36A65.48,65.48,0,0,0,47.43,25h0V3.06L37.22.08a1.88,1.88,0,0,0-2.41,1.8Z"/><path class="cls-4" d="M60,15.83c0,1.11-.95,1.66-1.8,2.36A65.93,65.93,0,0,1,47.43,25h0V3.06l10.2-3A1.88,1.88,0,0,1,60,1.88Z"/><path class="cls-5" d="M70.09,62.2A18.36,18.36,0,0,1,51.21,43.42a18,18,0,0,1,5.37-13.3A18.27,18.27,0,0,1,70,24.78a18.47,18.47,0,0,1,11.43,3.46,15.87,15.87,0,0,1,6,8.21L80.5,38.13a9.52,9.52,0,0,0-3.76-4.8A11.55,11.55,0,0,0,70,31.38a10.85,10.85,0,0,0-8.41,3.49,12.17,12.17,0,0,0-3.21,8.5A12.34,12.34,0,0,0,61.63,52,10.74,10.74,0,0,0,70,55.55a11.73,11.73,0,0,0,6.75-1.93,9.31,9.31,0,0,0,3.77-4.75l6.82,1.76a15.21,15.21,0,0,1-5.92,8.13,18.35,18.35,0,0,1-11.27,3.41Z"/><path class="cls-5" d="M99.34,39.31q2.56-5.06,8.58-4.22v6.38c-2.83-.45-5,0-6.4,1.43s-2.16,3.81-2.16,7.23V61.45H92.59v-26h6.77v3.84Z"/><path class="cls-5" d="M123.41,62.2a14.1,14.1,0,0,1-10.19-3.77,13.15,13.15,0,0,1-3.91-9.94,13.62,13.62,0,0,1,3.76-9.83,13.05,13.05,0,0,1,9.84-3.92c4.14,0,7.43,1.25,9.84,3.79a13.33,13.33,0,0,1,3.62,9.56,14.45,14.45,0,0,1-.15,2.41H116a6.48,6.48,0,0,0,2.26,4.3,8,8,0,0,0,5.3,1.6q4.52,0,6.32-3.44L136,54.77a12.23,12.23,0,0,1-4.55,5.17,13.88,13.88,0,0,1-8,2.23Zm6.31-15.94a6.32,6.32,0,0,0-2.11-4.12,7.53,7.53,0,0,0-9.47,0A6.46,6.46,0,0,0,116,46.26Z"/><path class="cls-5" d="M168,24V61.47h-6.86V58.28a10,10,0,0,1-8.35,3.92,12,12,0,0,1-9.14-3.94,13.81,13.81,0,0,1-3.69-9.79,13.8,13.8,0,0,1,3.69-9.84,12.08,12.08,0,0,1,9.16-3.91,10,10,0,0,1,8.36,3.86V23.92ZM154,56.07a7.09,7.09,0,0,0,5.27-2.18,7.52,7.52,0,0,0,2.13-5.52A7.34,7.34,0,0,0,159.22,43,7.18,7.18,0,0,0,154,40.79a7,7,0,0,0-5.27,2.13,7.56,7.56,0,0,0-2.06,5.5A7.63,7.63,0,0,0,148.68,54,7,7,0,0,0,154,56.13Z"/><path class="cls-5" d="M178.1,31.83a4,4,0,0,1-4-4A3.72,3.72,0,0,1,175.24,25,4.18,4.18,0,0,1,181,25a3.72,3.72,0,0,1,1.18,2.78A3.8,3.8,0,0,1,181,30.65a4,4,0,0,1-2.86,1.13Zm-3.51,3.66h6.83v26h-6.83Z"/><path class="cls-5" d="M204.74,60.62a16.18,16.18,0,0,1-6.08,1.23c-2.88,0-5-.83-6.5-2.46A10,10,0,0,1,190,52.56V41.39h-4.37v-6H190V27h6.83v8.43h7.6v6h-7.6V52.56c0,2.18,1.05,3.29,3.18,3.29a6.76,6.76,0,0,0,3.09-.73Z"/><path class="cls-5" d="M233.16,42.65A9.77,9.77,0,0,1,237.68,46a9,9,0,0,1,1.63,5.35,9.17,9.17,0,0,1-3.19,7.26q-3.19,2.78-8.66,2.78H209.61v-36h16.77a12.54,12.54,0,0,1,8.23,2.63,8.54,8.54,0,0,1,3.24,6.86,8,8,0,0,1-4.67,7.7Zm-18-12.3V40.89h11.47a5.85,5.85,0,0,0,4.21-1.56,4.85,4.85,0,0,0,1.58-3.76,4.76,4.76,0,0,0-1.68-3.77,6.54,6.54,0,0,0-4.44-1.48Zm12.19,26.28A6.49,6.49,0,0,0,232,55a5.38,5.38,0,0,0,1.73-4.07A5.19,5.19,0,0,0,232.05,47a6.4,6.4,0,0,0-4.62-1.63H215.14V56.6h12.24Z"/><path class="cls-5" d="M257.16,62.12a13.35,13.35,0,0,1-9.81-3.89,13.1,13.1,0,0,1-3.92-9.71,13.1,13.1,0,0,1,3.92-9.69,14.38,14.38,0,0,1,19.65,0,13.1,13.1,0,0,1,3.92,9.71A13.1,13.1,0,0,1,267,58.23a13.35,13.35,0,0,1-9.81,3.89Zm6.1-7.38a8.48,8.48,0,0,0,2.41-6.17,8.61,8.61,0,0,0-2.41-6.25,8.11,8.11,0,0,0-6.1-2.48,8,8,0,0,0-6.07,2.48,8.71,8.71,0,0,0-2.38,6.25,8.58,8.58,0,0,0,2.38,6.17,8,8,0,0,0,6.07,2.49A8.12,8.12,0,0,0,263.26,54.74Z"/><path class="cls-5" d="M288.57,62.12a13.35,13.35,0,0,1-9.81-3.89,13.1,13.1,0,0,1-3.92-9.71,13.1,13.1,0,0,1,3.92-9.69,14.38,14.38,0,0,1,19.65,0,13.1,13.1,0,0,1,3.92,9.71,13.1,13.1,0,0,1-3.92,9.71,13.35,13.35,0,0,1-9.81,3.89Zm6.1-7.38a8.48,8.48,0,0,0,2.41-6.17,8.61,8.61,0,0,0-2.41-6.25,8.11,8.11,0,0,0-6.1-2.48,8,8,0,0,0-6.07,2.48,8.72,8.72,0,0,0-2.39,6.25,8.59,8.59,0,0,0,2.39,6.17,8,8,0,0,0,6.07,2.49A8.12,8.12,0,0,0,294.67,54.74Z"/><path class="cls-5" d="M316.75,50.5l-3.47,3.69v7.26h-5.39V23.92h5.39V47.37l10.79-11.78h6.38l-10.32,11.2,11.53,14.66h-6.18Z"/></svg>